<?xml version="1.0" encoding="UTF-8" standalone="no"?>
<!-- Created with Inkscape (http://www.inkscape.org/) -->

<svg
   width="152.21341mm"
   height="167.30409mm"
   viewBox="0 0 152.21341 167.30409"
   version="1.1"
   id="svg5"
   inkscape:version="1.1.2 (0a00cf5339, 2022-02-04)"
   sodipodi:docname="icon.svg"
   xmlns:inkscape="http://www.inkscape.org/namespaces/inkscape"
   xmlns:sodipodi="http://sodipodi.sourceforge.net/DTD/sodipodi-0.dtd"
   xmlns="http://www.w3.org/2000/svg"
   xmlns:svg="http://www.w3.org/2000/svg">
  <sodipodi:namedview
     id="namedview7"
     pagecolor="#ffffff"
     bordercolor="#666666"
     borderopacity="1.0"
     inkscape:pageshadow="2"
     inkscape:pageopacity="0.0"
     inkscape:pagecheckerboard="0"
     inkscape:document-units="mm"
     showgrid="false"
     fit-margin-top="0"
     fit-margin-left="0"
     fit-margin-right="0"
     fit-margin-bottom="0"
     inkscape:zoom="0.38332919"
     inkscape:cx="-105.65332"
     inkscape:cy="430.43943"
     inkscape:window-width="1916"
     inkscape:window-height="1032"
     inkscape:window-x="0"
     inkscape:window-y="0"
     inkscape:window-maximized="1"
     inkscape:current-layer="layer1" />
  <defs
     id="defs2" />
  <g
     inkscape:label="Layer 1"
     inkscape:groupmode="layer"
     id="layer1"
     transform="translate(-38.764671,-58.837736)">
    <path
       style="fill:#000000;stroke-width:0.264583"
       d="M 67.471962,217.18842 38.764671,207.88267 V 151.70212 95.521566 l 26.040003,-18.34192 26.040003,-18.34191 h 2.204268 2.204267 l 0.02027,11.17864 c 0.03455,19.06511 0.396098,62.351084 0.521808,62.473334 0.0657,0.0639 11.96611,-1.11726 26.44544,-2.6247 14.47932,-1.50743 26.62369,-2.6693 26.9875,-2.58191 1.07658,0.25861 2.06811,1.09527 2.8215,2.38082 0.67801,1.15694 0.72074,1.4614 1.04658,7.45719 0.18684,3.43805 0.34546,7.05009 0.35248,8.02674 l 0.0128,1.77574 -1.12448,0.30453 c -0.61847,0.16749 -1.65395,0.38101 -2.30108,0.47448 -0.98202,0.14185 -0.30939,0.29203 4.0672,0.90809 2.88409,0.40597 5.2879,0.69403 5.3418,0.64014 0.0539,-0.0539 0.27317,-1.1026 0.48729,-2.33046 1.2484,-7.15883 4.48763,-13.76816 8.19136,-16.71364 0.73986,-0.58839 2.1191,-1.43435 3.06499,-1.8799 1.50972,-0.71114 1.9945,-0.80842 3.96875,-0.79644 1.8487,0.0112 2.52459,0.13854 3.79764,0.71532 3.53192,1.60021 6.14301,4.41247 8.38485,9.03085 6.22662,12.82735 4.21218,32.6017 -4.14429,40.68165 -2.44561,2.36469 -4.30008,3.36101 -6.97987,3.74996 -4.65389,0.67548 -9.91368,-3.06786 -13.0647,-9.29804 -0.46302,-0.91547 -0.868,-1.38906 -1.18785,-1.38906 -1.25692,0 -17.67671,-1.36832 -22.25995,-1.855 -11.95003,-1.26895 -30.31009,-3.79072 -31.9361,-4.38646 -0.61169,-0.22411 -1.47489,-0.8206 -1.91823,-1.32554 l -0.80608,-0.91808 -0.002,-3.49652 c -0.001,-1.92309 -0.0778,-4.30019 -0.17055,-5.28246 l -0.16867,-1.78594 2.48565,-0.0292 c 2.38067,-0.028 2.19704,-0.0681 -4.3477,-0.9498 -3.75835,-0.5063 -6.8837,-0.87022 -6.94523,-0.80869 -0.0615,0.0615 0.0181,17.08654 0.17701,37.83335 0.15887,20.74682 0.24813,37.89159 0.19835,38.09949 -0.0692,0.28888 -6.857878,-1.81571 -28.797843,-8.92776 z m 26.886308,1.39151 c -0.08746,-2.80128 -0.233738,-19.88675 -0.325078,-37.96771 -0.131966,-26.12419 -0.0985,-32.87448 0.16301,-32.87448 0.440354,0 0.257503,-12.64082 -0.186836,-12.91625 -0.208065,-0.12898 -0.346215,-9.94014 -0.483137,-34.31188 C 93.420766,81.737426 93.260178,64.880756 93.169367,63.050366 l -0.165113,-3.328 -26.259896,18.49783 -26.259896,18.49782 v 54.730714 c 0,43.49868 0.06787,54.77282 0.330729,54.93598 0.514814,0.31954 52.655934,17.23689 53.210156,17.2642 0.468538,0.0231 0.484368,-0.21794 0.332923,-5.06898 z M 66.413629,214.41464 41.145921,206.2605 V 152.09125 97.921996 l 24.995592,-18.07241 c 13.747573,-9.93982 25.040344,-18.02765 25.095047,-17.97295 0.102332,0.10233 1.081685,135.458334 1.097436,151.676204 0.0069,7.08983 -0.06318,9.05697 -0.321929,9.03896 -0.181902,-0.0126 -11.701198,-3.69238 -25.598438,-8.17716 z m 25.131088,2.44549 C 91.534667,205.96129 90.503719,63.525136 90.434385,63.456716 c -0.04178,-0.0412 -10.970183,7.80472 -24.285339,17.43545 l -24.209375,17.51041 -0.06679,53.427144 c -0.04075,32.59452 0.02894,53.52288 0.178719,53.67265 0.201736,0.20174 48.660047,15.96021 49.29901,16.03186 0.109141,0.0123 0.19649,-2.0911 0.194109,-4.6741 z m 87.153893,-37.98134 c 4.68124,-2.15651 8.72421,-9.59786 9.9318,-18.28013 0.3672,-2.64011 0.3672,-9.3234 0,-11.96351 -0.91983,-6.61328 -3.37892,-12.4108 -6.72615,-15.85744 -1.97736,-2.03607 -3.91575,-3.05646 -6.14641,-3.23552 l -1.6588,-0.13315 v 2.0206 c 0,1.77699 0.058,2.0206 0.48114,2.0206 0.26463,0 1.12031,0.18981 1.90151,0.4218 4.03155,1.19724 7.74072,7.99298 8.71952,15.97543 1.55303,12.66546 -3.593,25.89143 -10.08908,25.93029 l -0.97128,0.006 -0.0871,2.01157 -0.0871,2.01158 1.5875,-0.10537 c 0.97682,-0.0648 2.18639,-0.38125 3.14435,-0.82256 z m -5.65789,-1.23868 v -1.84762 l -1.28937,-0.65337 c -0.71074,-0.36016 -1.95214,-1.38577 -2.76626,-2.2854 -1.29168,-1.42735 -1.66088,-1.67479 -2.94397,-1.97305 -0.80689,-0.18757 -1.46707,-0.27914 -1.46707,-0.2035 0,0.50767 1.91877,3.56523 3.15051,5.02033 1.28722,1.52065 4.34082,3.79024 5.09953,3.79024 0.11915,0 0.21663,-0.83143 0.21663,-1.84763 z m 3.94403,-3.29922 c 6.24681,-3.1655 9.4477,-17.30634 6.52321,-28.81819 -1.56195,-6.14844 -5.02175,-10.72513 -8.35745,-11.05541 l -0.91917,-0.091 -0.0697,8.77844 c -0.0682,8.59644 -0.0586,8.78195 0.46302,8.94752 0.51648,0.16392 0.53271,0.38569 0.53271,7.27717 0,6.87571 -0.0173,7.11358 -0.52916,7.27604 -0.49906,0.15839 -0.52917,0.40032 -0.52917,4.25116 v 4.08321 h 0.80254 c 0.44141,0 1.37882,-0.29202 2.08316,-0.64893 z m -3.94403,-1.20315 v -1.5875 h -2.00239 -2.0024 l 0.54768,0.76915 c 0.52148,0.73235 2.77374,2.40585 3.23788,2.40585 0.12058,0 0.21923,-0.71438 0.21923,-1.5875 z m -0.65883,-4.16719 c 0.24438,-2.14895 0.35867,-2.44253 1.07865,-2.77057 l 0.63851,-0.29093 v -6.51421 -6.51422 l -6.25034,-0.8806 c -3.94346,-0.5556 -6.31154,-0.78488 -6.41615,-0.62123 -0.1043,0.16317 -3.06093,-0.14824 -7.97101,-0.83954 -5.32095,-0.74915 -8.4276,-1.06775 -9.76069,-1.001 l -1.95548,0.0979 0.17109,2.22578 c 0.12351,1.60687 0.086,2.22579 -0.1349,2.22579 -0.22494,0 -0.26614,1.09192 -0.15553,4.12239 0.12712,3.48281 0.22566,4.20737 0.63517,4.67017 0.61316,0.69295 3.01128,1.79077 5.90867,2.70491 3.03279,0.95685 11.33494,3.00069 13.62604,3.35448 1.01865,0.1573 1.97115,0.36254 2.11667,0.45609 0.67747,0.43551 4.18275,1.04738 6.13252,1.07048 l 2.16378,0.0256 0.173,-1.52135 z m -17.9943,-0.72461 c -0.58208,-0.19365 -2.55062,-0.76865 -4.37452,-1.27777 -4.45369,-1.24317 -6.99886,-2.25994 -8.15731,-3.25875 l -0.96192,-0.82936 -0.0741,-3.80085 c -0.0408,-2.09047 -0.13233,-4.06874 -0.20348,-4.39616 l -0.12934,-0.59531 h -16.79604 -16.796 l 0.0287,2.44739 c 0.0491,4.18125 0.27378,5.49862 1.0345,6.06455 1.30706,0.9724 25.49009,4.12197 44.04825,5.73679 3.57472,0.31105 3.5869,0.31059 2.38124,-0.0905 z m -14.54752,-18.32539 c -0.10444,-1.12778 -0.215,-2.07764 -0.24569,-2.11079 -0.0307,-0.0331 -5.4361,0.016 -12.01202,0.10914 l -11.95623,0.16942 v 1.94137 1.94138 h 12.20192 12.20192 z m 33.06163,-15.11002 c -0.29466,-0.29466 -2.05851,0.90085 -3.1964,2.16646 -2.15676,2.39884 -4.34845,7.89983 -4.7642,11.95782 -0.0966,0.94234 -0.12934,1.72215 -0.0729,1.73292 0.0565,0.0108 1.88862,0.28096 4.07143,0.60043 l 3.96875,0.58087 0.0699,-8.44603 c 0.0384,-4.64531 0.004,-8.51192 -0.0766,-8.59247 z m -8.71414,13.30403 c 1.26295,-7.25134 4.04072,-12.20285 7.87015,-14.02898 l 0.98301,-0.46876 v -1.93538 c 0,-1.06445 -0.0635,-1.93537 -0.14109,-1.93537 -0.53377,0 -3.05931,1.57296 -4.12291,2.56783 -3.48991,3.2644 -6.65992,10.73812 -7.15931,16.87905 -0.0856,1.05307 -0.0808,1.05903 0.97226,1.19921 0.58209,0.0775 1.08721,0.12798 1.12249,0.11223 0.0353,-0.0157 0.24921,-1.09117 0.4754,-2.38983 z m -50.67809,0.77338 v -1.49564 l -2.97657,0.17152 c -1.63711,0.0943 -5.77453,0.18145 -9.19427,0.1936 -3.41974,0.0121 -6.061526,0.0846 -5.870634,0.161 0.267744,0.10715 16.170034,2.29332 17.710744,2.43479 0.22916,0.021 0.33073,-0.42896 0.33073,-1.46527 z m 0.01,-2.49361 c 0.0782,-0.12399 8.52905,-0.35039 18.77972,-0.5031 14.16107,-0.21097 18.70981,-0.3562 18.93832,-0.60464 0.22472,-0.24433 0.211,-1.96555 -0.0543,-6.80927 -0.19526,-3.56526 -0.4173,-6.741 -0.49341,-7.05721 -0.0761,-0.31621 -0.44666,-0.94128 -0.82344,-1.38906 -0.56931,-0.67659 -0.87106,-0.81141 -1.78601,-0.79797 -0.60553,0.009 -12.70955,1.23036 -26.89783,2.71436 l -25.796884,2.69819 -0.0711,6.18279 -0.07111,6.18278 9.066944,-0.19571 c 4.98681,-0.10764 9.1309,-0.29717 9.20908,-0.42116 z"
       id="path57" />
  </g>
</svg>
