<?xml version="1.0" encoding="UTF-8" standalone="no"?>
<!-- Created with Inkscape (http://www.inkscape.org/) -->

<svg
   width="169.90477mm"
   height="59.676819mm"
   viewBox="0 0 169.90477 59.676819"
   version="1.1"
   id="svg198"
   sodipodi:docname="icon.svg"
   inkscape:version="1.1.2 (0a00cf5339, 2022-02-04)"
   xmlns:inkscape="http://www.inkscape.org/namespaces/inkscape"
   xmlns:sodipodi="http://sodipodi.sourceforge.net/DTD/sodipodi-0.dtd"
   xmlns="http://www.w3.org/2000/svg"
   xmlns:svg="http://www.w3.org/2000/svg">
  <sodipodi:namedview
     id="namedview200"
     pagecolor="#ffffff"
     bordercolor="#666666"
     borderopacity="1.0"
     inkscape:pageshadow="2"
     inkscape:pageopacity="0.0"
     inkscape:pagecheckerboard="0"
     inkscape:document-units="mm"
     showgrid="false"
     inkscape:zoom="0.46996297"
     inkscape:cx="-337.26062"
     inkscape:cy="-70.218299"
     inkscape:window-width="1916"
     inkscape:window-height="1032"
     inkscape:window-x="0"
     inkscape:window-y="0"
     inkscape:window-maximized="1"
     inkscape:current-layer="layer1"
     fit-margin-top="0"
     fit-margin-left="0"
     fit-margin-right="0"
     fit-margin-bottom="0" />
  <defs
     id="defs195" />
  <g
     inkscape:label="Layer 1"
     inkscape:groupmode="layer"
     id="layer1"
     transform="translate(-12.782814,-142.95843)">
    <path
       style="fill:#000000;stroke-width:0.0930211"
       d="m 28.867581,202.53747 c -0.834952,-0.27411 -1.642111,-1.00105 -2.00437,-1.80516 -0.308536,-0.68487 -0.286049,-1.85185 0.04902,-2.54377 0.298288,-0.61596 1.007711,-1.31383 1.625926,-1.59943 0.349434,-0.16143 0.609307,-0.20233 1.275991,-0.20082 0.773662,0.002 0.881843,0.026 1.425642,0.31905 0.647126,0.34877 1.101759,0.82003 1.428047,1.4803 0.308418,0.6241 0.308418,2.00581 0,2.62991 -0.325119,0.6579 -0.780969,1.13191 -1.411985,1.46824 -0.469098,0.25002 -0.701189,0.31177 -1.286111,0.34214 -0.450866,0.0234 -0.856776,-0.01 -1.102158,-0.0905 z m 48.061733,-0.4427 c -12.245046,-1.24996 -30.2246,-10.31982 -44.138494,-22.26585 -9.799391,-8.41344 -16.737761,-17.39778 -18.678038,-24.18575 -0.439293,-1.53685 -0.57141,-2.42469 -0.567533,-3.81387 0.0043,-1.52726 0.145728,-2.22182 0.68002,-3.33875 1.384793,-2.89488 4.498005,-4.32866 9.410076,-4.33378 2.531199,-0.003 4.749811,0.27767 7.80131,0.98566 2.284589,0.53005 7.026109,2.0019 7.292174,2.26361 0.04272,0.042 0.0085,0.21019 -0.07605,0.3737 -0.111905,0.2164 -0.196317,0.28061 -0.310234,0.23599 -0.747543,-0.29282 -4.780651,-1.59059 -5.737764,-1.84629 -6.574539,-1.75647 -11.57074,-1.80615 -14.333822,-0.14253 -0.634147,0.38181 -1.481155,1.26813 -1.83062,1.91557 -1.132227,2.09764 -0.740107,5.17877 1.140558,8.96207 2.150164,4.32545 5.50926,8.67147 10.786542,13.95569 5.535798,5.54308 11.492538,10.38385 18.609096,15.12276 11.729193,7.81045 23.625054,13.02096 31.816699,13.93604 4.882998,0.54547 8.135465,-0.56245 9.499337,-3.23586 0.565846,-1.10915 0.707447,-3.11182 0.350724,-4.96032 -0.445289,-2.30744 -1.704406,-5.19371 -3.539372,-8.1133 -0.300783,-0.47857 -0.546879,-0.91016 -0.546879,-0.95908 0,-0.0489 0.155097,-0.076 0.34466,-0.0601 0.332276,0.0278 0.369224,0.069 1.028244,1.14512 1.800326,2.93983 2.949428,5.56045 3.520522,8.02884 0.28306,1.22345 0.388395,3.10086 0.230496,4.10823 -0.541647,3.45563 -3.167241,5.61869 -7.511383,6.18816 -1.159032,0.15193 -3.910182,0.1698 -5.240266,0.034 z m -56.083925,-1.1183 c -1.035135,-0.12083 -2.671242,-0.53964 -3.570262,-0.9139 -2.160294,-0.89933 -3.729279,-2.62532 -4.314221,-4.74592 -0.236111,-0.85598 -0.23779,-3.44391 -0.003,-4.55803 1.001681,-4.75233 4.387654,-10.51251 9.641899,-16.4027 0.540037,-0.6054 1.10106,-1.24375 1.246717,-1.41857 0.145658,-0.17481 0.294649,-0.31784 0.331092,-0.31784 0.03644,0 0.683627,0.64791 1.438186,1.4398 l 1.371926,1.43979 -1.445208,1.56568 c -4.825086,5.22728 -7.979088,9.90975 -9.255182,13.74035 -0.826928,2.48228 -0.867803,4.32092 -0.130949,5.89044 0.369401,0.78683 1.38387,1.762 2.28091,2.19254 1.447728,0.69484 3.723493,1.04807 5.976444,0.92763 l 1.13017,-0.0604 0.10956,0.58913 c 0.06026,0.32402 0.08622,0.61249 0.0577,0.64106 -0.09237,0.0925 -4.059029,0.0851 -4.865826,-0.009 z m 13.151216,-1.91573 c -0.02945,-0.14069 -0.0909,-0.42189 -0.136554,-0.62489 -0.04565,-0.20299 -0.07468,-0.37508 -0.0645,-0.38241 0.01018,-0.007 0.667328,-0.22256 1.460333,-0.4783 3.350239,-1.08043 7.242982,-2.67749 10.992455,-4.50986 l 2.294985,-1.12155 0.588668,0.33497 c 0.323766,0.18424 0.647968,0.37436 0.720449,0.42249 0.22941,0.15236 -4.952981,2.66601 -8.343489,4.04689 -2.472253,1.0069 -6.952921,2.56847 -7.369802,2.56847 -0.04895,0 -0.11309,-0.11511 -0.14254,-0.25581 z m 20.074711,-9.39907 c -0.318701,-0.18968 -0.580323,-0.36758 -0.581382,-0.39532 -0.0011,-0.0277 0.280624,-0.21393 0.625965,-0.41375 3.339411,-1.93224 8.465239,-5.38707 11.835892,-7.97745 l 1.161724,-0.8928 0.433081,0.48127 c 0.333795,0.37094 0.409688,0.50998 0.331042,0.60651 -0.182095,0.22349 -4.064191,3.11474 -5.823701,4.33728 -2.910774,2.02247 -6.990812,4.61031 -7.257336,4.60309 -0.08021,-0.002 -0.406586,-0.15915 -0.725285,-0.34883 z m 47.369044,-1.19597 c -0.15348,-0.0179 -0.67672,-0.0786 -1.16276,-0.13489 -3.73942,-0.43313 -5.48252,-1.91774 -5.80496,-4.94411 l -0.057,-0.53487 h 2.96586 2.96586 l 0.0543,0.27144 c 0.0299,0.14929 0.18355,0.41866 0.34154,0.5986 0.52176,0.59425 1.58049,0.79687 4.1879,0.80146 3.48748,0.006 4.79062,-0.42545 5.40438,-1.78992 0.20632,-0.45866 0.22033,-0.61012 0.24728,-2.67222 l 0.0286,-2.18599 -0.35475,0.58175 c -1.12918,1.85173 -2.41422,2.42901 -5.74979,2.583 -1.59067,0.0734 -4.49395,-0.074 -5.64509,-0.28676 -3.6967,-0.68309 -5.09555,-2.53713 -5.09555,-6.75369 0,-1.34413 0.1598,-3.99938 0.28459,-4.72875 0.35732,-2.08842 2.27319,-3.48759 5.39921,-3.94308 2.12872,-0.31016 6.83214,-0.26275 8.12982,0.0819 1.27331,0.33824 2.03085,0.96983 2.65221,2.21128 l 0.37098,0.74118 v -1.45259 -1.4526 h 2.8859 2.88592 l -0.0255,8.90676 -0.0255,8.90677 -0.28699,0.80163 c -0.37541,1.04858 -1.03,2.02147 -1.77179,2.63333 -1.23663,1.02003 -2.64274,1.46317 -5.47592,1.72574 -0.92723,0.0859 -6.67611,0.11299 -7.34867,0.0346 z m 5.61518,-11.7554 c 2.00196,-0.1772 2.69332,-0.48756 3.20709,-1.43969 0.18571,-0.34416 0.20038,-0.50122 0.19543,-2.09297 -0.005,-1.55937 -0.0251,-1.77093 -0.2153,-2.25394 -0.25654,-0.65133 -0.67096,-1.01671 -1.39232,-1.22753 -0.83712,-0.24465 -3.79651,-0.38213 -5.56663,-0.25859 -2.14943,0.15001 -2.83641,0.41097 -3.26273,1.23944 -0.47556,0.92413 -0.48755,3.81906 -0.0198,4.78528 0.47781,0.98704 1.59209,1.29332 4.83436,1.32883 0.63952,0.007 1.63848,-0.0294 2.21991,-0.0808 z m -31.940137,4.74275 c -5.187896,-0.27018 -6.918382,-1.59371 -7.308414,-5.58974 -0.137306,-1.40675 -0.05563,-4.76814 0.146012,-6.00928 0.472013,-2.90531 1.764018,-3.98451 5.441513,-4.54526 1.301108,-0.19839 7.670248,-0.29083 9.641664,-0.13993 3.219439,0.24642 4.825183,0.7728 5.887567,1.93 1.1119,1.21114 1.46943,2.89652 1.358598,6.40437 -0.09493,3.0046 -0.285348,4.16616 -0.866072,5.28311 -0.710545,1.36664 -2.011071,2.05377 -4.607912,2.43457 -1.974923,0.2896 -6.50605,0.39813 -9.692956,0.23216 z m 7.162622,-4.45355 c 0.255808,-0.0551 0.694437,-0.21636 0.97473,-0.35839 0.435983,-0.22092 0.550238,-0.33763 0.790679,-0.80768 l 0.281054,-0.54946 v -2.00663 -2.00664 l -0.274381,-0.49532 c -0.490413,-0.88531 -1.269515,-1.17007 -3.652779,-1.33506 -1.869362,-0.12942 -3.923879,-0.004 -4.90984,0.29971 -0.870271,0.26808 -1.430681,0.82094 -1.650818,1.62858 -0.364983,1.33904 -0.279226,3.55739 0.173503,4.48812 0.348723,0.71692 0.896542,1.03094 2.132856,1.22258 0.723419,0.11214 5.534264,0.0496 6.134996,-0.0798 z m 45.719855,4.39837 c -3.56068,-0.29671 -5.03046,-0.74078 -6.26065,-1.89155 -1.29372,-1.21023 -1.73916,-2.71155 -1.73916,-5.86181 0,-3.528 0.45394,-5.36758 1.62835,-6.59883 1.43829,-1.5079 3.84863,-1.93693 10.34494,-1.84135 3.97579,0.0585 5.00373,0.19893 6.44488,0.88052 1.23581,0.58448 2.19494,1.78769 2.50255,3.13939 0.17083,0.75068 0.2831,2.22208 0.28568,3.7441 l 0.002,1.41857 h -7.73452 -7.73451 l 0.0552,0.85169 c 0.0923,1.42388 0.56141,2.03285 1.83278,2.37897 0.51561,0.14037 1.01557,0.16461 3.39527,0.16461 3.06629,0 3.56555,-0.0624 4.03935,-0.50501 0.17064,-0.15942 0.2944,-0.38952 0.33269,-0.61858 0.0335,-0.20061 0.0773,-0.41707 0.0973,-0.48103 0.028,-0.0897 0.68832,-0.11627 2.88923,-0.11627 h 2.8529 l -0.0651,0.72091 c -0.19006,2.10475 -1.1597,3.37869 -3.07266,4.03695 -1.48717,0.51174 -2.00729,0.56279 -6.00397,0.58926 -2.02088,0.0134 -3.8627,0.009 -4.09292,-0.0105 z m 7.51543,-10.66204 c -0.0685,-1.05536 -0.43621,-1.58274 -1.31712,-1.88879 -0.39747,-0.13809 -0.89044,-0.17262 -2.9408,-0.20597 -2.62247,-0.0427 -3.52443,0.034 -4.27958,0.36356 -0.81004,0.35353 -1.10179,0.78779 -1.18342,1.76144 l -0.054,0.64417 h 4.90933 4.90933 z m 31.0429,10.62209 c -2.89189,-0.23832 -4.46467,-0.94961 -5.17395,-2.33991 -0.25803,-0.50578 -0.54795,-1.68431 -0.54795,-2.22743 v -0.45023 h 3.0113 3.01129 l 0.0581,0.3636 c 0.0722,0.45146 0.43974,0.78148 1.10956,0.99629 0.39257,0.12589 1.01119,0.16328 3.2763,0.19803 4.68394,0.0719 5.53303,-0.16333 5.53303,-1.5326 0,-0.53847 -0.17859,-0.82651 -0.64005,-1.0323 -0.29045,-0.12954 -1.03264,-0.15864 -5.40632,-0.21203 -5.35345,-0.0653 -6.04734,-0.11734 -7.30215,-0.54714 -1.75664,-0.60168 -2.5533,-1.92205 -2.5567,-4.23742 -0.002,-1.53507 0.41201,-2.69985 1.26318,-3.55164 1.08458,-1.08537 2.73365,-1.44341 7.42625,-1.61238 3.0303,-0.10912 6.9643,0.002 8.39751,0.23633 1.88341,0.30846 2.8971,0.94078 3.42391,2.13578 0.24457,0.55479 0.41751,1.31011 0.41751,1.82348 v 0.36751 l -2.99993,-0.002 -2.99993,-0.002 -0.13953,-0.29463 c -0.35395,-0.74738 -0.92512,-0.85916 -4.37199,-0.8556 -3.10128,0.003 -3.64354,0.0868 -4.16269,0.64213 -0.38463,0.41139 -0.42555,1.01872 -0.093,1.38079 0.41408,0.45087 0.53922,0.46203 5.93009,0.52867 4.12422,0.051 5.22066,0.0913 5.87943,0.21612 2.3157,0.43881 3.31378,1.28425 3.66148,3.10153 0.26835,1.40255 0.0996,3.1701 -0.40587,4.25018 -0.67454,1.44145 -2.12213,2.16399 -5.06404,2.52762 -1.44749,0.17891 -8.8328,0.26954 -10.53486,0.12927 z M 46.747503,174.03808 c -1.938432,-3.92665 -3.68526,-7.46431 -3.881839,-7.86147 l -0.357417,-0.72211 3.271277,0.0245 3.271277,0.0245 1.246651,2.79064 c 3.030685,6.7842 3.777341,8.42075 3.821647,8.37644 0.02599,-0.026 1.16672,-2.54921 2.534958,-5.60716 l 2.487706,-5.55992 3.25962,-0.0244 3.259619,-0.0244 -3.282243,6.62894 c -1.805234,3.64591 -3.56076,7.18357 -3.901169,7.86146 l -0.618925,1.23253 h -3.79337 -3.79337 z m 98.273227,-4.11618 v -11.25555 h 3.02319 3.02318 v 11.25555 11.25555 h -3.02318 -3.02319 z m -115.975133,0.71982 c -0.779594,-0.78081 -1.417445,-1.44722 -1.417445,-1.48091 0,-0.17673 3.914702,-3.59166 6.56206,-5.72431 10.590835,-8.53173 23.525259,-15.59794 34.181164,-18.67351 4.613375,-1.33154 8.36408,-1.90296 11.754572,-1.7908 2.384394,0.0789 3.961552,0.40477 5.533534,1.14338 2.141301,1.00612 3.424554,2.45492 4.030975,4.55102 0.187637,0.64856 0.215186,0.94732 0.214449,2.32552 -7.44e-4,1.30678 -0.0379,1.74743 -0.214231,2.53778 -0.225563,1.011 -0.750529,2.63954 -1.175988,3.64812 -0.730051,1.73065 -2.799136,5.39212 -3.680251,6.51261 l -0.234221,0.29785 -0.71482,-0.067 -0.714821,-0.067 0.692207,-1.00113 c 3.078032,-4.45172 4.820121,-8.96703 4.55426,-11.80416 -0.249674,-2.66439 -1.66111,-4.24378 -4.476646,-5.00934 -0.88086,-0.23951 -1.012775,-0.24971 -3.243728,-0.25091 -2.133325,-0.001 -2.447518,0.0202 -3.80155,0.25822 -8.165394,1.43534 -18.656666,6.09132 -29.546501,13.1126 -5.230839,3.37261 -11.734924,8.3205 -15.906601,12.10071 -0.486035,0.44043 -0.905136,0.8008 -0.931336,0.80083 -0.0262,3e-5 -0.685486,-0.63879 -1.465082,-1.4196 z m 125.091203,-4.17659 1e-5,-1.24079 0.59295,-0.007 c 1.08191,-0.0121 1.98827,-0.644 2.16077,-1.5065 l 0.0601,-0.30079 h -1.03486 -1.03486 v -2.27902 -2.27901 h 2.79064 2.79063 l -9.3e-4,2.81388 c 0,1.54764 -0.0431,3.08598 -0.0949,3.41853 -0.13773,0.88367 -0.50907,1.56264 -1.05518,1.92932 -0.78369,0.52618 -1.20254,0.60925 -3.29094,0.65265 l -1.88368,0.0392 1e-5,-1.24079 z m -86.248013,-1.17371 c -2.575201,-2.19778 -9.824271,-7.26787 -13.121698,-9.17747 -0.242994,-0.14072 -0.461055,-0.287 -0.484578,-0.32506 -0.02352,-0.0381 0.120837,-0.16116 0.320801,-0.27355 l 0.363571,-0.20433 1.516323,0.94719 c 2.934815,1.83327 6.558836,4.33703 9.051028,6.25316 1.521088,1.16949 3.310891,2.59854 3.27955,2.61851 -0.0131,0.008 -0.157259,0.10728 -0.32036,0.21984 l -0.296548,0.20465 z m 110.643663,-2.44824 c -0.71314,-0.12013 -1.31031,-0.43301 -1.84869,-0.96858 -0.72285,-0.71909 -0.91057,-1.19575 -0.91548,-2.32455 -0.004,-0.83459 0.0227,-0.98462 0.25586,-1.45951 0.65313,-1.33009 2.25399,-2.13117 3.67269,-1.83784 1.15963,0.23977 1.97226,0.84622 2.45915,1.83521 0.27834,0.56541 0.30545,0.6962 0.3026,1.46018 -0.003,0.71718 -0.0395,0.91402 -0.25319,1.35423 -0.13755,0.2833 -0.39459,0.6839 -0.5712,0.89023 -0.36881,0.43088 -1.2334,0.92308 -1.77707,1.01166 -0.71692,0.11681 -0.84096,0.12046 -1.32467,0.039 z m 1.81672,-0.77165 c 0.53255,-0.26986 0.991,-0.76046 1.26526,-1.35399 0.30077,-0.65089 0.27213,-1.84081 -0.0597,-2.48126 -0.63541,-1.22626 -1.96892,-1.77807 -3.32428,-1.37557 -0.65874,0.19562 -1.47942,0.99405 -1.7057,1.65942 -0.19657,0.57804 -0.19999,1.47199 -0.008,2.03604 0.26833,0.7875 1.0885,1.52556 1.94488,1.75017 0.48513,0.12723 1.39673,0.0138 1.88737,-0.23481 z m -2.492,-2.52927 v -1.91472 l 1.11439,0.031 c 1.05594,0.0294 1.12705,0.0437 1.35575,0.27266 0.52896,0.52952 0.35094,1.46568 -0.32953,1.73298 l -0.35524,0.13954 0.50263,0.77111 c 0.27645,0.4241 0.50263,0.79608 0.50263,0.8266 0,0.0305 -0.12138,0.0555 -0.26974,0.0555 -0.23859,0 -0.32802,-0.0939 -0.77475,-0.81393 -0.47248,-0.76149 -0.52703,-0.8158 -0.84652,-0.84281 l -0.3415,-0.0289 v 0.84281 0.8428 h -0.27906 -0.27906 z m 2.00418,-0.45309 c 0.27682,-0.27682 0.29114,-0.54604 0.0423,-0.7949 -0.1506,-0.15061 -0.31007,-0.18605 -0.83719,-0.18605 h -0.65115 v 0.60464 0.60464 h 0.60887 c 0.52242,0 0.64128,-0.0324 0.83719,-0.22833 z M 41.518445,152.5846 c -0.564895,-0.18463 -0.99215,-0.47375 -1.444677,-0.97758 -0.522544,-0.5818 -0.771088,-1.2641 -0.766155,-2.10324 0.0068,-1.16228 0.728226,-2.2909 1.795303,-2.80873 0.453148,-0.2199 0.639354,-0.25471 1.362095,-0.25464 0.732043,8e-5 0.898944,0.0322 1.328889,0.25595 0.686958,0.35746 1.182904,0.83385 1.462043,1.40439 0.792891,1.62061 0.165147,3.52714 -1.416064,4.30076 -0.615345,0.30106 -1.699025,0.38653 -2.321434,0.18309 z m 5.953113,-0.50995 -1.225863,-0.61743 0.136366,-0.32132 c 0.075,-0.17673 0.151246,-0.33621 0.169434,-0.35439 0.06069,-0.0607 2.843585,1.37312 2.843585,1.46508 0,0.0498 -0.156973,0.17041 -0.348829,0.26802 l -0.348829,0.17748 z"
       id="path491" />
  </g>
</svg>
